<svg width="30" height="30" viewBox="0 0 30 30" fill="none" xmlns="http://www.w3.org/2000/svg">
<path d="M0 15C0 6.71573 6.71573 0 15 0C23.2843 0 30 6.71573 30 15C30 23.2843 23.2843 30 15 30C6.71573 30 0 23.2843 0 15Z" fill="black"/>
<path fill-rule="evenodd" clip-rule="evenodd" d="M11.5037 8.36548C11.2397 8.36548 11.0126 8.55206 10.9614 8.81097L9.6552 15.4126C10.7043 14.4324 12.109 13.8433 13.6289 13.8413L14.0429 11.7715H16.4074C17.2756 11.7715 17.9795 12.4753 17.9795 13.3435C17.9795 14.2117 17.2756 14.9155 16.4074 14.9155H13.68L13.6787 15.0624C11.4593 15.0425 9.54071 16.6067 9.11322 18.7846L8.80248 20.3677L8.67956 20.3435L8.50571 21.2222C8.46345 21.4358 8.6269 21.6347 8.84463 21.6347H11.6473C11.91 21.6347 12.1364 21.4498 12.1889 21.1925L12.2226 21.0275C12.5377 19.4832 13.8961 18.3739 15.4723 18.3739H16.5321C19.296 18.3739 21.5366 16.1335 21.5366 13.3697C21.5366 10.6059 19.296 8.36548 16.5321 8.36548H11.5037Z" fill="white"/>
</svg>
