<svg width="980" height="153" viewBox="0 0 980 153" fill="none" xmlns="http://www.w3.org/2000/svg">
<path d="M0 76.5C0 34.5264 34.0264 0.5 76 0.5C117.974 0.5 152 34.5264 152 76.5C152 118.474 117.974 152.5 76 152.5C34.0264 152.5 0 118.474 0 76.5Z" fill="black"/>
<path fill-rule="evenodd" clip-rule="evenodd" d="M57.7237 42.8846C56.7126 42.8846 55.8427 43.5994 55.6464 44.5911L48.662 79.8905C53.8804 74.6374 61.0769 71.4352 68.9017 71.3841L71.1503 60.1418H83.1304C87.5295 60.1418 91.0957 63.7078 91.0957 68.1067C91.0957 72.5055 87.5295 76.0715 83.1304 76.0715H68.3578C58.0174 76.3835 49.0832 83.2624 46.0614 93.0343L42.9944 108.535C42.8325 109.353 43.4586 110.115 44.2926 110.115H59.5705C60.5768 110.115 61.4441 109.407 61.6453 108.421L62.5966 103.759C63.8037 97.8433 69.0074 93.5942 75.0451 93.5942H83.7621C97.766 93.5942 109.118 82.2425 109.118 68.2394C109.118 54.2364 97.766 42.8846 83.7621 42.8846H57.7237Z" fill="white"/>
<path fill-rule="evenodd" clip-rule="evenodd" d="M874.116 39.6132H859.458L859.072 46.1954H873.739L869.678 117.039H876.823L880.884 46.1954H896.352L896.738 39.6132H881.262L882.758 13.5112H875.613L874.116 39.6132ZM466.028 98.227C468.433 104.08 472.067 108.672 476.932 112.002C489.39 119.692 508.763 118.425 520.359 108.905L519.639 116.793H537.244L546.122 13.5601H527.723L524.799 44.9856C519.052 40.1981 511.94 37.8295 503.607 37.8295C496.108 37.8295 489.467 39.545 483.682 42.9761C477.897 46.4072 472.282 51.3016 468.791 57.3565C465.411 63.3105 463.714 70.0213 463.006 77.7917C462.297 85.5622 463.724 92.3739 466.028 98.227ZM481.003 77.855C480.606 82.2079 481.132 86.0288 482.58 89.3176C484.126 92.6065 486.32 95.1699 489.164 97.0078C492.105 98.8456 495.615 99.7646 499.694 99.7646C503.774 99.7646 507.451 98.8456 510.727 97.0078C514.003 95.1699 516.665 92.6065 518.713 89.3176C520.762 86.0288 521.984 82.2079 522.381 77.855C522.787 73.4054 522.261 69.5845 520.804 66.3924C519.355 63.1036 517.161 60.5402 514.22 58.7023C511.279 56.8644 507.769 55.9454 503.69 55.9454C499.61 55.9454 495.933 56.8644 492.657 58.7023C489.478 60.5402 486.816 63.1036 484.671 66.3924C482.631 69.5845 481.409 73.4054 481.003 77.855ZM379.4 40.0624H361.955L361.182 46.6566C355.338 40.6777 347.088 37.7919 338.312 37.7919C331.32 37.7919 324.665 39.0858 319 42.3151C313.436 45.5444 308.299 50.3557 304.836 56.1079C301.373 61.86 299.283 68.6718 298.565 76.5431C297.856 84.3136 299.111 91.3776 301.295 97.4325C303.479 103.487 307.477 108.129 312.424 111.661C324.475 120.003 344.789 118.197 355.701 108.687L355.028 116.808L372.409 116.808L379.4 40.0624ZM318.1 89.28C316.652 85.9912 316.126 82.1703 316.523 77.8174C316.929 73.3678 318.151 69.5469 320.191 66.3548C322.336 63.0659 324.998 60.5026 328.177 58.6647C331.453 56.8268 335.13 55.9078 339.21 55.9078C343.29 55.9078 346.8 56.8268 349.74 58.6647C352.681 60.5026 354.875 63.0659 356.324 66.3548C357.781 69.5469 358.307 73.3678 357.901 77.8174C357.504 82.1703 356.282 85.9912 354.234 89.28C352.185 92.5689 349.523 95.1322 346.247 96.9701C342.972 98.808 339.294 99.7269 335.214 99.7269C331.135 99.7269 327.625 98.808 324.684 96.9701C321.841 95.1322 319.646 92.5689 318.1 89.28ZM401.484 116.808H382.981L390.063 40.0623H408.603L408.155 45.6088C415.165 40.0623 423.493 39.2311 431.727 40.386C448.322 42.7136 458.302 55.3076 456.776 72.0454L453.125 116.808H434.581L438.373 77.754C439.432 66.1424 437.768 57.3187 424.464 57.3187C412.748 57.3187 406.655 64.6611 405.135 78.6982C403.615 92.7353 401.484 116.808 401.484 116.808ZM549.151 77.2999C549.859 69.5294 552.203 62.7176 556.182 56.8646C560.17 50.9106 565.356 46.2685 571.74 42.9384C578.124 39.6082 585.166 37.9431 592.867 37.9431C600.67 37.9431 607.409 39.6082 613.084 42.9384C618.86 46.2685 623.2 50.9106 626.102 56.8646C629.014 62.7176 630.115 69.5294 629.407 77.2999C628.698 85.0703 626.35 91.9325 622.362 97.8865C618.383 103.74 613.201 108.331 606.818 111.661C600.535 114.991 593.493 116.657 585.69 116.657C577.989 116.657 571.25 114.991 565.474 111.661C559.697 108.331 555.353 103.74 552.442 97.8865C549.539 91.9325 548.442 85.0703 549.151 77.2999ZM567.695 77.2999C567.281 81.841 567.829 85.8271 569.34 89.2582C570.953 92.6893 573.242 95.3636 576.209 97.281C579.277 99.1983 582.939 100.157 587.195 100.157C591.451 100.157 595.287 99.1983 598.705 97.281C602.122 95.3636 604.899 92.6893 607.036 89.2582C609.173 85.8271 610.449 81.841 610.863 77.2999C611.286 72.6578 610.738 68.6716 609.217 65.3415C607.706 61.9104 605.417 59.2361 602.349 57.3187C599.281 55.4013 595.619 54.4426 591.363 54.4426C587.107 54.4426 583.27 55.4013 579.853 57.3187C576.537 59.2361 573.759 61.9104 571.521 65.3415C569.394 68.6716 568.118 72.6578 567.695 77.2999ZM783.77 39.0965L782.936 45.8292C762.1 46.4357 756.489 53.4943 754.822 71.358L752.355 116.973H745.209C745.209 116.973 746.713 84.1398 747.965 68.8468C749.832 46.0468 762.474 39.0965 783.77 39.0965ZM789.531 58.0964C785.88 63.6641 783.694 70.0769 782.972 77.3348C782.26 84.4932 783.171 90.906 785.704 96.5732C788.238 102.24 792.039 106.714 797.108 109.995C802.177 113.276 808.109 114.917 814.903 114.917C821.797 114.917 828.055 113.276 833.677 109.995C839.398 106.714 844.09 102.24 847.751 96.5732C851.412 90.906 853.598 84.4932 854.31 77.3348C855.032 70.0769 854.121 63.6641 851.578 58.0964C849.044 52.4292 845.243 47.9552 840.174 44.6742C835.205 41.3933 829.273 39.7528 822.379 39.7528C815.585 39.7528 809.327 41.3933 803.605 44.6742C797.884 47.9552 793.192 52.4292 789.531 58.0964ZM792.238 93.4418C790.332 88.7131 789.678 83.3441 790.276 77.3348C790.883 71.2269 792.605 65.8579 795.442 61.2277C798.378 56.5976 802.106 52.9526 806.628 50.2927C811.149 47.6329 816.182 46.3029 821.726 46.3029C827.27 46.3029 832.038 47.6329 836.031 50.2927C840.023 52.9526 842.977 56.5976 844.892 61.2277C846.907 65.8579 847.61 71.2269 847.003 77.3348C846.405 83.3441 844.634 88.7131 841.688 93.4418C838.852 98.0719 835.173 101.717 830.651 104.377C826.13 107.037 821.097 108.367 815.553 108.367C810.009 108.367 805.241 107.037 801.248 104.377C797.256 101.717 794.252 98.0719 792.238 93.4418ZM896.281 77.3348C897.003 70.0769 899.19 63.6641 902.841 58.0964C906.502 52.4292 911.193 47.9552 916.915 44.6742C922.637 41.3933 928.894 39.7528 935.689 39.7528C942.583 39.7528 948.514 41.3933 953.483 44.6742C958.552 47.9552 962.354 52.4292 964.887 58.0964C967.431 63.6641 968.342 70.0769 967.62 77.3348C966.908 84.4932 964.721 90.906 961.06 96.5732C957.399 102.24 952.708 106.714 946.986 109.995C941.365 113.276 935.107 114.917 928.213 114.917C921.419 114.917 915.487 113.276 910.418 109.995C905.349 106.714 901.548 102.24 899.014 96.5732C896.48 90.906 895.569 84.4932 896.281 77.3348ZM903.586 77.3348C902.988 83.3441 903.642 88.7131 905.548 93.4418C907.562 98.0719 910.565 101.717 914.558 104.377C918.55 107.037 923.319 108.367 928.863 108.367C934.407 108.367 939.439 107.037 943.961 104.377C948.483 101.717 952.162 98.0719 954.998 93.4418C957.943 88.7131 959.715 83.3441 960.313 77.3348C960.92 71.2269 960.217 65.8579 958.202 61.2278C956.287 56.5976 953.333 52.9526 949.34 50.2927C945.348 47.6329 940.58 46.3029 935.036 46.3029C929.492 46.3029 924.459 47.6329 919.937 50.2927C915.416 52.9526 911.687 56.5976 908.752 61.2278C905.915 65.8579 904.193 71.2269 903.586 77.3348ZM199.645 85.4666L187.777 99.9411C196.694 107.192 215.275 115.343 233.658 116.519C247.636 117.414 261.641 116.976 270.184 112.763C293.699 101.165 297.929 69.0312 284.274 50.8908C272.165 34.8046 243.293 32.2286 227.5 45.3558C214.908 55.8224 214.362 64.3993 212.954 86.537C212.814 88.7341 212.666 91.0647 212.497 93.544C205.533 90.6659 199.645 85.4666 199.645 85.4666ZM211.241 115.985C216.87 117.705 223.057 119.132 228.994 119.866L227.5 141.392H209.536L211.241 115.985ZM254.561 55.9078C240.035 55.9078 233.578 61.621 232.474 73.723C231.798 81.1366 230.419 98.0809 230.419 98.0809C236.465 98.9445 247.562 99.7649 256.825 98.4479C266.353 97.0931 272.272 88.5622 273.252 77.8174C273.658 73.3678 273.132 69.5469 271.675 66.3548C270.226 63.0659 268.031 60.5025 265.091 58.6646C262.15 56.8268 258.64 55.9078 254.561 55.9078ZM677.554 56.6845C673.045 62.6355 670.823 70.7681 670.323 79.157C669.947 85.4546 669.349 95.3778 668.731 105.63C675.362 106.268 683.354 106.871 691.05 106.657C699.455 106.424 706.982 105.223 711.984 102.445C721.102 97.3802 725.987 87.01 726.777 75.9638C727.403 67.2103 725.592 60.0301 721.374 55.0785C717.212 50.1911 710.194 46.8785 699.093 46.8785C688.702 46.8785 681.944 50.8899 677.554 56.6845ZM668.314 112.531C674.988 113.17 683.217 113.786 691.242 113.564C699.884 113.324 708.818 112.107 715.339 108.485C727.158 101.92 732.774 88.9592 733.669 76.4568C734.374 66.6008 732.417 57.3878 726.634 50.5987C720.797 43.7453 711.585 39.9694 699.093 39.9694C686.613 39.9694 677.786 44.936 672.047 52.5123C666.425 59.9321 663.973 69.5632 663.426 78.7456C662.888 87.769 661.893 104.241 661.034 118.459C660.604 125.568 660.208 132.113 659.919 136.88L659.629 141.662H666.551L666.816 137.298C667.104 132.53 667.5 125.985 667.93 118.876L668.314 112.531Z" fill="black"/>
</svg>
