<svg width="520" height="520" viewBox="0 0 520 520" fill="none" xmlns="http://www.w3.org/2000/svg">
<rect width="520" height="520" rx="260" fill="#22306D"/>
<circle cx="260" cy="260" r="260" fill="#22306D"/>
<path fill-rule="evenodd" clip-rule="evenodd" d="M133.549 260.5C133.549 216.16 169.324 180.322 213.325 180.322C257.174 180.322 292.854 215.914 293.1 260.042H259.165L212.352 208.728L164.704 260.958H197.579C197.704 291.457 210.26 319.038 230.442 338.831C224.934 340.04 219.208 340.678 213.325 340.678C169.324 340.678 133.549 304.84 133.549 260.5ZM226.902 260.958C227.147 305.086 262.828 340.678 306.676 340.678C350.677 340.678 386.453 304.84 386.453 260.5C386.453 216.16 350.677 180.322 306.676 180.322C300.793 180.322 295.067 180.96 289.559 182.169C309.741 201.962 322.298 229.543 322.422 260.042H354.381L306.733 312.272L259.92 260.958H226.902ZM259.994 359.5C245.83 366.237 229.996 370 213.325 370C153.013 370 104.227 320.916 104.227 260.5C104.227 200.084 153.013 151 213.325 151C230.034 151 245.859 154.768 260.007 161.5C274.172 154.763 290.005 151 306.676 151C366.988 151 415.775 200.084 415.775 260.5C415.775 320.916 366.988 370 306.676 370C289.967 370 274.142 366.232 259.994 359.5Z" fill="#F36EAE"/>
</svg>
