<svg width="520" height="520" viewBox="0 0 520 520" fill="none" xmlns="http://www.w3.org/2000/svg">
<rect width="520" height="520" fill="#FEF9D1"/>
<path d="M142.619 112.619C171.127 84.1105 217.348 84.1105 245.856 112.619L287.752 154.514C293.122 159.884 293.122 168.591 287.752 173.961L203.961 257.752C198.591 263.122 189.884 263.122 184.514 257.752L142.619 215.856C114.111 187.348 114.111 141.127 142.619 112.619Z" fill="url(#paint0_linear_71_184)"/>
<path d="M274.619 112.619C303.127 84.1106 349.348 84.1105 377.856 112.619C406.365 141.127 406.365 187.348 377.856 215.856L284.634 309.079C271.356 322.356 249.829 322.356 236.551 309.079L181.397 253.924C168.119 240.646 168.119 219.119 181.397 205.841L274.619 112.619Z" fill="url(#paint1_linear_71_184)"/>
<path d="M105.815 374.36C109.967 406.743 137.532 431 170.181 431H350.619C383.268 431 410.833 406.743 414.985 374.36L433.423 230.544C438.397 191.747 408.172 157.4 369.057 157.4H151.743C112.628 157.4 82.4035 191.747 87.3775 230.544L105.815 374.36Z" fill="url(#paint2_linear_71_184)"/>
<g style="mix-blend-mode:overlay">
<path d="M327 200C327 243.63 297.003 279 260 279C222.997 279 193 243.63 193 200" stroke="#0D0A1F" stroke-width="24.5538" stroke-linecap="round"/>
</g>
<path d="M327 200C327 237.003 297.003 267 260 267C222.997 267 193 237.003 193 200" stroke="#0D0A1F" stroke-width="24.5538" stroke-linecap="round"/>
<defs>
<linearGradient id="paint0_linear_71_184" x1="218.771" y1="83" x2="218.771" y2="195.5" gradientUnits="userSpaceOnUse">
<stop stop-color="#B341FA"/>
<stop offset="1" stop-color="#F55ACA"/>
</linearGradient>
<linearGradient id="paint1_linear_71_184" x1="327.5" y1="87.5" x2="327.5" y2="182" gradientUnits="userSpaceOnUse">
<stop stop-color="#FF5290"/>
<stop offset="1" stop-color="#FF7F57"/>
</linearGradient>
<linearGradient id="paint2_linear_71_184" x1="260.4" y1="431" x2="260.4" y2="157.4" gradientUnits="userSpaceOnUse">
<stop stop-color="#F5C638"/>
<stop offset="0.505208" stop-color="#FDD455"/>
<stop offset="1" stop-color="#FFDF70"/>
</linearGradient>
</defs>
</svg>
