<svg width="32" height="32" viewBox="0 0 32 32" fill="none" xmlns="http://www.w3.org/2000/svg">
<rect width="32" height="32" rx="16" fill="#22306D"/>
<circle cx="16" cy="16" r="16" fill="#FFECE8"/>
<path d="M24.3811 17.8916C24.6272 21.1979 22.4765 23.3237 16.0426 23.3237C9.60877 23.3237 7.48878 21.2902 7.70416 17.8916C7.91955 14.4929 11.5811 11.3237 16.0426 11.3237C20.5042 11.3237 24.1349 14.5852 24.3811 17.8916Z" fill="#E85C8E"/>
<path d="M22.6232 8.73076C23.3906 8.51056 24.1766 8.98749 24.3371 9.76781C24.937 12.6832 24.2153 14.6954 23.1046 17.3538C20.1013 16.3469 18.6433 15.4524 16.4308 13.2998C18.34 11.0944 19.8343 9.5309 22.6232 8.73076Z" fill="#E85C8E"/>
<path d="M9.43836 8.73076C8.67087 8.51056 7.88496 8.98749 7.7244 9.76781C7.12449 12.6832 7.84619 14.6954 8.95692 17.3538C11.9602 16.3469 13.4183 15.4524 15.6308 13.2998C13.7215 11.0944 12.2272 9.5309 9.43836 8.73076Z" fill="#E85C8E"/>
<path d="M15.5548 19.1723C15.9307 19.1723 16.4636 18.6391 16.2834 18.2563C16.1031 17.8735 15.0124 17.8735 14.8263 18.2563C14.6403 18.6391 15.179 19.1723 15.5548 19.1723Z" fill="white"/>
<circle cx="18.8488" cy="16.9305" r="2.29677" fill="white"/>
<circle cx="18.6225" cy="16.9231" r="1.41538" fill="#E85C8E"/>
<circle cx="12.266" cy="16.9305" r="2.29677" fill="white"/>
<path fill-rule="evenodd" clip-rule="evenodd" d="M22.7487 11.1332C22.6879 10.8288 22.3902 10.6428 22.0995 10.7287C21.1641 11.0051 20.6132 11.5148 19.9972 12.2252C20.8994 12.659 21.7016 13.2278 22.3657 13.8837C22.7375 12.9467 22.9605 12.1929 22.7487 11.1332Z" fill="white"/>
<path fill-rule="evenodd" clip-rule="evenodd" d="M9.31286 11.1332C9.37368 10.8288 9.67137 10.6428 9.96209 10.7287C10.8975 11.0051 11.4484 11.5148 12.0644 12.2252C11.1622 12.659 10.36 13.2278 9.6959 13.8837C9.32407 12.9467 9.1011 12.1929 9.31286 11.1332Z" fill="white"/>
<circle cx="12.5302" cy="16.9231" r="1.41538" fill="#E85C8E"/>
</svg>
